<?xml version="1.0"?>
<svg xmlns="http://www.w3.org/2000/svg" height="512px" viewBox="0 -8 480 480" width="512px" class=""><g><path d="m8 376h464v40c0 26.507812-21.492188 48-48 48h-368c-26.507812 0-48-21.492188-48-48zm0 0" fill="#f09e3e" data-original="#F09E3E" class="active-path" style="fill:#FF6400" data-old_color="#f09e3e"/><path d="m368 376v40c0 26.507812-21.492188 48-48 48h104c26.507812 0 48-21.492188 48-48v-40zm0 0" fill="#f09032" data-original="#F09032" class="" data-old_color="#f09032" style="fill:#FF7101"/><path d="m168 0h144c88.367188 0 160 71.632812 160 160h-464c0-88.367188 71.632812-160 160-160zm0 0" fill="#f09e3e" data-original="#F09E3E" class="active-path" style="fill:#FF6400" data-old_color="#f09e3e"/><path d="m312 0h-104c88.367188 0 160 71.632812 160 160h104c0-88.367188-71.632812-160-160-160zm0 0" fill="#f09032" data-original="#F09032" class="" data-old_color="#f09032" style="fill:#FF7101"/><path d="m56 248h368c26.507812 0 48 21.492188 48 48s-21.492188 48-48 48h-368c-26.507812 0-48-21.492188-48-48s21.492188-48 48-48zm0 0" fill="#8c563b" data-original="#8C563B" class=""/><path d="m424 312h-368c-20.324219-.019531-38.433594-12.839844-45.207031-32-5.246094 14.683594-3.015625 31.003906 5.980469 43.742188 8.996093 12.734374 23.632812 20.292968 39.226562 20.257812h368c15.59375.035156 30.230469-7.523438 39.226562-20.257812 8.996094-12.738282 11.226563-29.058594 5.980469-43.742188-6.773437 19.160156-24.882812 31.980469-45.207031 32zm0 0" fill="#874e35" data-original="#874E35" class=""/><path d="m424 248-120 84.703125 16 11.296875 127.367188-89.910156c-7.140626-4-15.183594-6.09375-23.367188-6.089844zm0 0" fill="#874e35" data-original="#874E35" class=""/><g fill="#c96e23"><path d="m232 64h16v16h-16zm0 0" data-original="#000000" class=""/><path d="m184 64h16v16h-16zm0 0" data-original="#000000" class=""/><path d="m136 64h16v16h-16zm0 0" data-original="#000000" class=""/><path d="m256 32h16v16h-16zm0 0" data-original="#000000" class=""/><path d="m208 32h16v16h-16zm0 0" data-original="#000000" class=""/><path d="m160 32h16v16h-16zm0 0" data-original="#000000" class=""/><path d="m280 64h16v16h-16zm0 0" data-original="#000000" class=""/><path d="m328 64h16v16h-16zm0 0" data-original="#000000" class=""/><path d="m304 32h16v16h-16zm0 0" data-original="#000000" class=""/></g><path d="m300 224.496094c-13.324219.039062-26.125-5.1875-35.617188-14.535156-13.550781-13.292969-35.246093-13.292969-48.796874 0-19.789063 19.355468-51.414063 19.355468-71.203126 0-13.550781-13.292969-35.246093-13.292969-48.796874 0-19.789063 19.355468-51.414063 19.355468-71.203126 0-6.488281-6.417969-15.257812-9.996094-24.382812-9.960938v-16c13.332031-.046875 26.136719 5.191406 35.617188 14.566406 13.550781 13.289063 35.246093 13.289063 48.796874 0 19.789063-19.351562 51.414063-19.351562 71.203126 0 13.550781 13.289063 35.246093 13.289063 48.796874 0 19.789063-19.351562 51.414063-19.351562 71.203126 0 13.550781 13.289063 35.246093 13.289063 48.796874 0 19.789063-19.351562 51.414063-19.351562 71.203126 0 13.550781 13.289063 35.246093 13.289063 48.796874 0 9.472657-9.367187 22.265626-14.605468 35.585938-14.566406v16c-9.125-.035156-17.894531 3.542969-24.382812 9.960938-19.789063 19.355468-51.414063 19.355468-71.203126 0-13.550781-13.292969-35.246093-13.292969-48.796874 0-9.496094 9.347656-22.292969 14.570312-35.617188 14.535156zm0 0" fill="#88b337" data-original="#88B337" class=""/><path d="m152 248 136 96 136-96zm0 0" fill="#fc3" data-original="#FC3" class=""/></g> </svg>
