<svg xmlns="http://www.w3.org/2000/svg" xmlns:xlink="http://www.w3.org/1999/xlink"><defs><path id="laqha" d="M493.03 7086.95c.162-.547 0-.95-.779-.95h-2.577c-.656 0-.958.346-1.12.73 0 0-1.312 3.199-3.167 5.272-.6.6-.875.792-1.203.792-.162 0-.411-.192-.411-.739v-5.106c0-.656-.184-.949-.727-.949h-4.051c-.411 0-.656.306-.656.59 0 .622.927.766 1.024 2.516v3.798c0 .831-.15.984-.477.984-.875 0-3.002-3.211-4.262-6.886-.253-.713-.503-1.002-1.163-1.002h-2.577c-.735 0-.884.346-.884.73 0 .683.875 4.074 4.073 8.554 2.13 3.058 5.132 4.716 7.862 4.716 1.64 0 1.842-.368 1.842-1.002 0-2.922-.149-3.198.674-3.198.38 0 1.037.192 2.568 1.667 1.75 1.75 2.039 2.533 3.019 2.533h2.576c.735 0 1.107-.368.893-1.094-.49-1.527-3.802-4.668-3.95-4.878-.381-.49-.272-.709 0-1.146.004-.005 3.15-4.432 3.473-5.933z"/></defs><symbol id="angel" viewBox="0 0 303.595 303.595"><g transform="matrix(-1 2.44929e-16 2.44929e-16 1 303.595 -1.75159e-14)"><g>
	<path d="M173.295,101.734c7.646-9.378,10.033-22.545,5.084-34.51c-7.177-17.352-27.061-25.6-44.414-18.421   c-12.812,5.299-20.651,17.527-20.992,30.547l-59.762-8.82L24,46.483c-1.462-1.203-3.458-1.526-5.226-0.846   c-1.767,0.681-3.029,2.26-3.306,4.133L8.89,94.343c-0.276,1.873,0.478,3.75,1.972,4.912c1.495,1.162,3.5,1.43,5.247,0.699   L51.022,85.37l20.165,2.977c-20.401,17.118-28.516,45.203-20.141,70.665c2.002,6.086,7.851,10.033,14.244,9.627l80.552-5.112   l3.667,121.904c0.18,5.984,4.13,11.193,9.843,12.988c52.013,16.335,108.533-7.045,133.807-55.35   c2.774-5.302,1.889-11.786-2.208-16.146L173.295,101.734z M97.772,92.27l18.579,2.742c5.398,11.195,16.261,18.193,28.005,19.106   l0.442,14.72L97.772,92.27z" data-original="#000000" class="active-path"/>
	<path d="M135.802,31.299c6.68,4.283,15.885,7.945,25.918,10.313c7.432,1.753,14.835,2.68,21.411,2.68   c19.261,0,23.951-7.69,25.032-12.274c1.099-4.656,0.022-11.737-11.342-19.024c-6.681-4.283-15.885-7.945-25.919-10.313   C163.472,0.927,156.068,0,149.492,0c-19.262,0-23.951,7.69-25.032,12.274C123.362,16.931,124.438,24.012,135.802,31.299z    M149.492,15c5.434,0,11.646,0.788,17.967,2.279c13.195,3.112,21.601,7.962,24.781,10.952c-1.743,0.526-4.682,1.06-9.109,1.06   c-5.434,0-11.647-0.788-17.968-2.279c-13.194-3.112-21.6-7.962-24.78-10.952C142.126,15.533,145.065,15,149.492,15z" data-original="#000000" class="active-path"/>
</g></g> </symbol><symbol id="envelope" viewBox="0 0 437.676 437.676"><g><g>
	<polygon points="218.841,256.659 19.744,81.824 417.931,81.824  " data-original="#010002" class="active-path" data-old_color="#010002"/>
	<polygon points="139.529,218.781 0,341.311 0,96.252  " data-original="#010002" class="active-path" data-old_color="#010002"/>
	<polygon points="157.615,234.665 218.841,288.427 280.055,234.665 418.057,355.852 19.619,355.852  " data-original="#010002" class="active-path" data-old_color="#010002"/>
	<polygon points="298.141,218.787 437.676,96.252 437.676,341.311  " data-original="#010002" class="active-path" data-old_color="#010002"/>
</g></g> </symbol><symbol id="facebook-letter-logo" viewBox="0 0 430.113 430.114">
<g>
	<path id="Facebook" d="M158.081,83.3c0,10.839,0,59.218,0,59.218h-43.385v72.412h43.385v215.183h89.122V214.936h59.805
		c0,0,5.601-34.721,8.316-72.685c-7.784,0-67.784,0-67.784,0s0-42.127,0-49.511c0-7.4,9.717-17.354,19.321-17.354
		c9.586,0,29.818,0,48.557,0c0-9.859,0-43.924,0-75.385c-25.016,0-53.476,0-66.021,0C155.878-0.004,158.081,72.48,158.081,83.3z"/>
</g>
<g>
</g>
<g>
</g>
<g>
</g>
<g>
</g>
<g>
</g>
<g>
</g>
<g>
</g>
<g>
</g>
<g>
</g>
<g>
</g>
<g>
</g>
<g>
</g>
<g>
</g>
<g>
</g>
<g>
</g>
</symbol><symbol id="facebook" viewBox="0 0 430.113 430.114">
<g>
	<path id="Facebook" d="M158.081,83.3c0,10.839,0,59.218,0,59.218h-43.385v72.412h43.385v215.183h89.122V214.936h59.805
		c0,0,5.601-34.721,8.316-72.685c-7.784,0-67.784,0-67.784,0s0-42.127,0-49.511c0-7.4,9.717-17.354,19.321-17.354
		c9.586,0,29.818,0,48.557,0c0-9.859,0-43.924,0-75.385c-25.016,0-53.476,0-66.021,0C155.878-0.004,158.081,72.48,158.081,83.3z"/>
</g>
<g>
</g>
<g>
</g>
<g>
</g>
<g>
</g>
<g>
</g>
<g>
</g>
<g>
</g>
<g>
</g>
<g>
</g>
<g>
</g>
<g>
</g>
<g>
</g>
<g>
</g>
<g>
</g>
<g>
</g>
</symbol><symbol id="instagram" viewBox="0 0 512 512">
<g>
	<g>
		<path d="M352,0H160C71.648,0,0,71.648,0,160v192c0,88.352,71.648,160,160,160h192c88.352,0,160-71.648,160-160V160
			C512,71.648,440.352,0,352,0z M464,352c0,61.76-50.24,112-112,112H160c-61.76,0-112-50.24-112-112V160C48,98.24,98.24,48,160,48
			h192c61.76,0,112,50.24,112,112V352z"/>
	</g>
</g>
<g>
	<g>
		<path d="M256,128c-70.688,0-128,57.312-128,128s57.312,128,128,128s128-57.312,128-128S326.688,128,256,128z M256,336
			c-44.096,0-80-35.904-80-80c0-44.128,35.904-80,80-80s80,35.872,80,80C336,300.096,300.096,336,256,336z"/>
	</g>
</g>
<g>
	<g>
		<circle cx="393.6" cy="118.4" r="17.056"/>
	</g>
</g>
<g>
</g>
<g>
</g>
<g>
</g>
<g>
</g>
<g>
</g>
<g>
</g>
<g>
</g>
<g>
</g>
<g>
</g>
<g>
</g>
<g>
</g>
<g>
</g>
<g>
</g>
<g>
</g>
<g>
</g>
</symbol><symbol id="phone" viewBox="0 0 480.56 480.56"><g><g>
	<g>
		<path d="M365.354,317.9c-15.7-15.5-35.3-15.5-50.9,0c-11.9,11.8-23.8,23.6-35.5,35.6c-3.2,3.3-5.9,4-9.8,1.8    c-7.7-4.2-15.9-7.6-23.3-12.2c-34.5-21.7-63.4-49.6-89-81c-12.7-15.6-24-32.3-31.9-51.1c-1.6-3.8-1.3-6.3,1.8-9.4    c11.9-11.5,23.5-23.3,35.2-35.1c16.3-16.4,16.3-35.6-0.1-52.1c-9.3-9.4-18.6-18.6-27.9-28c-9.6-9.6-19.1-19.3-28.8-28.8    c-15.7-15.3-35.3-15.3-50.9,0.1c-12,11.8-23.5,23.9-35.7,35.5c-11.3,10.7-17,23.8-18.2,39.1c-1.9,24.9,4.2,48.4,12.8,71.3    c17.6,47.4,44.4,89.5,76.9,128.1c43.9,52.2,96.3,93.5,157.6,123.3c27.6,13.4,56.2,23.7,87.3,25.4c21.4,1.2,40-4.2,54.9-20.9    c10.2-11.4,21.7-21.8,32.5-32.7c16-16.2,16.1-35.8,0.2-51.8C403.554,355.9,384.454,336.9,365.354,317.9z" data-original="#000000" class="active-path" data-old_color="#000000"/>
		<path d="M346.254,238.2l36.9-6.3c-5.8-33.9-21.8-64.6-46.1-89c-25.7-25.7-58.2-41.9-94-46.9l-5.2,37.1    c27.7,3.9,52.9,16.4,72.8,36.3C329.454,188.2,341.754,212,346.254,238.2z" data-original="#000000" class="active-path" data-old_color="#000000"/>
		<path d="M403.954,77.8c-42.6-42.6-96.5-69.5-156-77.8l-5.2,37.1c51.4,7.2,98,30.5,134.8,67.2c34.9,34.9,57.8,79,66.1,127.5    l36.9-6.3C470.854,169.3,444.354,118.3,403.954,77.8z" data-original="#000000" class="active-path" data-old_color="#000000"/>
	</g>
</g></g> </symbol><symbol id="swipe-up" viewBox="0 0 444.819 444.819">
<g>
	<path d="M434.252,208.708L248.387,22.843c-7.042-7.043-15.693-10.564-25.977-10.564c-10.467,0-19.036,3.521-25.697,10.564
		L10.848,208.708C3.615,215.94,0,224.604,0,234.692c0,9.897,3.619,18.459,10.848,25.693l21.411,21.409
		c6.854,7.231,15.42,10.855,25.697,10.855c10.278,0,18.842-3.624,25.697-10.855l83.939-83.651v200.998
		c0,9.89,3.567,17.936,10.706,24.126c7.139,6.184,15.752,9.273,25.837,9.273h36.545c10.089,0,18.698-3.09,25.837-9.273
		c7.139-6.188,10.712-14.236,10.712-24.126V198.144l83.938,83.651c6.848,7.231,15.413,10.855,25.7,10.855
		c10.082,0,18.747-3.624,25.975-10.855l21.409-21.409c7.043-7.426,10.567-15.988,10.567-25.693
		C444.819,224.795,441.295,216.134,434.252,208.708z"/>
</g>
<g>
</g>
<g>
</g>
<g>
</g>
<g>
</g>
<g>
</g>
<g>
</g>
<g>
</g>
<g>
</g>
<g>
</g>
<g>
</g>
<g>
</g>
<g>
</g>
<g>
</g>
<g>
</g>
<g>
</g>
</symbol><symbol id="twitter-logo-silhouette" viewBox="0 0 612 612">
<g>
	<g>
		<path style="fill:#010002;" d="M612,116.258c-22.525,9.981-46.694,16.75-72.088,19.772c25.929-15.527,45.777-40.155,55.184-69.411
			c-24.322,14.379-51.169,24.82-79.775,30.48c-22.907-24.437-55.49-39.658-91.63-39.658c-69.334,0-125.551,56.217-125.551,125.513
			c0,9.828,1.109,19.427,3.251,28.606C197.065,206.32,104.556,156.337,42.641,80.386c-10.823,18.51-16.98,40.078-16.98,63.101
			c0,43.559,22.181,81.993,55.835,104.479c-20.575-0.688-39.926-6.348-56.867-15.756v1.568c0,60.806,43.291,111.554,100.693,123.104
			c-10.517,2.83-21.607,4.398-33.08,4.398c-8.107,0-15.947-0.803-23.634-2.333c15.985,49.907,62.336,86.199,117.253,87.194
			c-42.947,33.654-97.099,53.655-155.916,53.655c-10.134,0-20.116-0.612-29.944-1.721c55.567,35.681,121.536,56.485,192.438,56.485
			c230.948,0,357.188-191.291,357.188-357.188l-0.421-16.253C573.872,163.526,595.211,141.422,612,116.258z"/>
	</g>
</g>
<g>
</g>
<g>
</g>
<g>
</g>
<g>
</g>
<g>
</g>
<g>
</g>
<g>
</g>
<g>
</g>
<g>
</g>
<g>
</g>
<g>
</g>
<g>
</g>
<g>
</g>
<g>
</g>
<g>
</g>
</symbol><symbol id="vk" viewBox="0 0 24 14"><g><g transform="translate(-470 -7086)"><use xlink:href="#laqha"/></g></g></symbol></svg>